<svg width="1440" height="541" viewBox="0 0 1440 541" fill="none" xmlns="http://www.w3.org/2000/svg">
<rect width="1440" height="541" fill="#D7F5F6"/>
<mask id="mask0_59_16" style="mask-type:alpha" maskUnits="userSpaceOnUse" x="0" y="64" width="1440" height="477">
<rect y="64" width="1440" height="477" fill="#D7F5F6"/>
</mask>
<g mask="url(#mask0_59_16)">
<mask id="mask1_59_16" style="mask-type:alpha" maskUnits="userSpaceOnUse" x="-34" y="183" width="612" height="567">
<rect x="-34" y="183" width="612" height="567" fill="#C4C4C4"/>
</mask>
<g mask="url(#mask1_59_16)">
<path d="M2432 386H2471.51L2474.74 418.202H2475.15C2485.25 403.46 2509.85 384.58 2538.5 383V425C2496.77 433.152 2477.62 460.822 2477.62 485.93V586H2432V386ZM2222 486.615V485.795C2222 424.285 2251.94 380 2313.85 380C2371.26 380 2397.92 413.215 2397.92 482.925C2397.92 490.305 2397.4 500.495 2396.6 508H2269.86C2273.13 536.172 2289.55 553 2323.25 553C2344.57 553 2364.61 551.005 2383.18 548.574V586.778C2362.31 590.051 2344.61 592 2322.06 592C2256.44 592 2222 559.195 2222 486.615ZM2269.16 474H2351.58C2351.58 442.706 2343.38 418 2312.62 418C2280.64 418 2269.98 444.353 2269.16 474ZM2013 386H2052.71C2052.71 386 2054.55 405.854 2055.36 413H2055.9C2066.89 395.76 2089.99 380 2117.91 380C2165.09 380 2188.5 405.12 2188.5 456.068V586H2142.88V465.47C2142.88 432.948 2130.36 420.208 2105.76 421.94C2083.47 423.51 2058.62 448.972 2058.62 480.815V586H2013V386ZM1798 386H1837.71C1837.71 386 1839.55 405.854 1840.36 413H1840.9C1851.89 395.76 1874.99 380 1902.91 380C1950.09 380 1973.5 405.12 1973.5 456.068V586H1927.88V465.47C1927.88 432.948 1915.36 420.208 1890.76 421.94C1868.47 423.51 1843.62 448.972 1843.62 480.815V586H1798V386ZM1618.28 382.13C1638.1 380.49 1659.6 380 1680.36 380C1729.27 380 1758.45 398.906 1758.45 452.336V586H1717.44L1715.4 565.993H1714.86C1700.8 581.15 1680.36 590 1654.2 590C1619.54 590 1592 567.553 1592 523.07C1592 481.7 1626.5 443.177 1712.83 461.5V449.46C1712.83 425.62 1698.86 418.96 1671.32 418.96C1654.42 418.96 1640.08 420.105 1618.28 421.97V382.13ZM1712.83 493.148C1676.25 483.842 1639.68 495.275 1639.68 523.548C1639.68 542.302 1652.12 553.321 1670.68 552.496C1685.3 551.846 1701.4 545.356 1712.83 535.233L1712.83 493.148ZM1557.62 306V586H1512V311.29L1557.62 306ZM1296 386H1334.53L1337.01 407.66H1337.75C1351.13 391.477 1373.52 380 1399.35 380C1450.62 380 1478.1 418.143 1478.1 482.945V484.995C1478.1 547.338 1450.62 592.045 1393.2 592.045C1373.11 592.045 1353.42 584.251 1341.52 575.229V663H1296V386ZM1341.53 444.572V536.675C1350.96 544.057 1366.14 550.619 1380.9 550.619C1419.45 550.619 1430.53 520.679 1430.53 485.405C1430.53 453.415 1424.37 422.407 1387.05 422.407C1369.01 422.407 1351.56 433.022 1341.53 444.571V444.572ZM1156.68 486C1156.81 529.695 1175.73 553 1213.41 553C1229.33 553 1245.52 551.024 1260.2 549.05V586C1248.14 588.416 1228.15 591 1207.64 591C1151.45 591 1109.17 560.07 1109 486C1109.17 411.93 1151.45 381 1207.64 381C1228.15 381 1248.14 383.583 1260.2 386V422.95C1245.52 420.976 1229.33 419 1213.41 419C1175.73 419 1156.81 442.304 1156.68 486ZM892 487.025V484.975C892 418.134 922.754 380 986.313 380C1049.46 380 1080.22 418.135 1080.22 484.975V487.025C1080.22 553.865 1049.46 592.001 986.313 592.001C922.753 592 892 553.866 892 487.026V487.025ZM986.207 418C953.907 418 939 439.916 939 485.704C939 531.492 953.907 553 986.207 553C1018.51 553 1033 531.56 1033 485.704C1033 439.848 1018.51 418 986.207 418ZM811.547 446C811.547 383.05 798.771 351.282 731.237 351.282H699.935V540.72H731.237C798.771 540.72 811.547 508.95 811.547 446ZM322.932 569.285C333.042 544.497 361.485 509.81 390.497 491.915L454.733 598.195L388.938 646L322.932 569.285ZM228.045 645.885L137.477 587.633C206.047 459.461 334.177 368.186 484.777 351.181L510 428.885C385.87 453.335 282.282 535.271 228.045 645.885ZM247.81 382.08L259.257 246H340.613L350.949 369.062C304.269 385.072 276.816 397.862 245.363 417.197C222.143 431.437 201.026 448.099 182.133 467.209L90 428.313L115.114 350.833L247.81 382.08Z" fill="#00C3A5"/>
</g>
</g>
</svg>
